<svg width="18" height="18" viewBox="0 0 18 18" fill="none" xmlns="http://www.w3.org/2000/svg">
<path d="M3.75244 16.4999H6.75244H11.2524H14.2524C15.0797 16.4999 15.7524 15.8272 15.7524 14.9999V8.24994C15.7524 8.05119 15.6737 7.85994 15.5327 7.71969L9.53269 1.71969C9.23944 1.42644 8.76544 1.42644 8.47219 1.71969L2.47219 7.71969C2.33119 7.85994 2.25244 8.05119 2.25244 8.24994V14.9999C2.25244 15.8272 2.92519 16.4999 3.75244 16.4999ZM7.50244 14.9999V11.2499H10.5024V14.9999H7.50244ZM3.75244 8.56044L9.00244 3.31044L14.2524 8.56044L14.2532 14.9999H12.0024V11.2499C12.0024 10.4227 11.3297 9.74994 10.5024 9.74994H7.50244C6.67519 9.74994 6.00244 10.4227 6.00244 11.2499V14.9999H3.75244V8.56044Z" fill="#9397AD"/>
</svg>
