<svg width="60" height="60" viewBox="0 0 60 60" fill="none" xmlns="http://www.w3.org/2000/svg">
<rect width="60" height="60" rx="8" fill="#6366F1" fill-opacity="0.08"/>
<g clip-path="url(#clip0_20005128_11008)">
<path d="M29.9454 44C29.7777 44 29.6102 43.9615 29.4562 43.8846C29.3282 43.8206 26.2866 42.2784 23.1043 38.8192C21.2389 36.7919 19.7068 34.5186 18.5503 32.0625C17.1058 28.9949 16.2485 25.6363 16.0018 22.0801C15.9817 21.79 16.078 21.504 16.2692 21.285C16.4606 21.0661 16.7311 20.9321 17.0214 20.9131C19.0245 20.7815 20.5938 19.1039 20.5938 17.0938C20.5938 16.4896 21.0834 16 21.6875 16H38.3125C38.9165 16 39.4063 16.4896 39.4063 17.0938C39.4063 19.1027 40.9745 20.7802 42.9766 20.9131C43.2714 20.9326 43.5457 21.0706 43.7371 21.2955C43.9287 21.5204 44.021 21.8133 43.9932 22.1075C43.6192 26.0561 42.5288 29.7492 40.7523 33.0845C40.4682 33.6177 39.8058 33.8196 39.2728 33.5357C38.7396 33.2518 38.5377 32.5893 38.8216 32.0561C40.3097 29.2624 41.2768 26.1905 41.7021 22.9116C39.4625 22.3211 37.742 20.469 37.319 18.1875H22.6811C22.2564 20.4788 20.5233 22.3367 18.2698 22.9188C18.8447 28.4367 20.9894 33.2612 24.6531 37.2717C26.8461 39.6722 28.9962 41.0885 29.9392 41.6491C30.971 41.0215 33.4663 39.3349 35.8956 36.4106C36.2816 35.9458 36.971 35.8821 37.4358 36.2681C37.9005 36.6541 37.9643 37.3437 37.5783 37.8083C34.121 41.9702 30.5922 43.8039 30.4435 43.8799C30.2872 43.9601 30.1163 44 29.9454 44ZM30.7913 38.0809C31.1555 37.5988 31.06 36.9131 30.5783 36.5488C29.6326 35.8343 28.7378 35.024 27.9183 34.1409C25.5358 31.5723 23.9193 28.5544 23.1073 25.1617C23.5448 24.8237 23.9564 24.4503 24.3365 24.0461C24.9667 23.3755 25.5048 22.6268 25.9359 21.8202C26.2204 21.2874 26.0192 20.6247 25.4864 20.34C24.9536 20.0554 24.291 20.2567 24.0064 20.7894C23.6661 21.426 23.241 22.0175 22.7428 22.5478C22.3036 23.015 21.8114 23.4296 21.2804 23.7806C20.9078 24.0267 20.7222 24.4746 20.8117 24.9124C21.6444 28.9842 23.4957 32.5898 26.3146 35.6285C27.2208 36.6054 28.2116 37.5024 29.2594 38.2941C29.4568 38.4432 29.6884 38.5152 29.918 38.5152C30.2491 38.5152 30.5764 38.3655 30.7913 38.0809Z" fill="url(#paint0_linear_20005128_11008)"/>
</g>
<defs>
<linearGradient id="paint0_linear_20005128_11008" x1="15.9991" y1="30.067" x2="43.9981" y2="30.067" gradientUnits="userSpaceOnUse">
<stop stop-color="#6366F1"/>
<stop offset="0.5" stop-color="#8B5CF6"/>
<stop offset="1" stop-color="#D946EF"/>
</linearGradient>
<clipPath id="clip0_20005128_11008">
<rect width="28" height="28" fill="white" transform="translate(16 16)"/>
</clipPath>
</defs>
</svg>
