<svg width="44" height="44" viewBox="0 0 44 44" fill="none" xmlns="http://www.w3.org/2000/svg">
<rect width="44" height="44" rx="6" fill="#EFF2FC"/>
<path d="M28.3608 18.6641C28.3716 18.81 28.3716 18.955 28.3716 19.1C28.3716 23.5375 24.9941 28.6508 18.8216 28.6508C16.92 28.6508 15.1533 28.1 13.6666 27.1433C13.9366 27.1741 14.1966 27.185 14.4775 27.185C16.0466 27.185 17.4908 26.655 18.645 25.7508C17.1691 25.72 15.9325 24.7533 15.5058 23.4233C15.7133 23.4541 15.9216 23.475 16.14 23.475C16.4408 23.475 16.7433 23.4333 17.0241 23.3608C15.485 23.0491 14.3325 21.6983 14.3325 20.0666V20.025C14.78 20.2741 15.2991 20.43 15.8491 20.4508C14.945 19.8491 14.3525 18.82 14.3525 17.6558C14.3525 17.0325 14.5183 16.4608 14.8091 15.9625C16.4616 17.9983 18.9458 19.3291 21.7308 19.475C21.6791 19.225 21.6475 18.9658 21.6475 18.7058C21.6475 16.8558 23.1441 15.3491 25.0041 15.3491C25.9708 15.3491 26.8433 15.7541 27.4566 16.4091C28.215 16.2633 28.9416 15.9825 29.5866 15.5983C29.3375 16.3775 28.8066 17.0325 28.1108 17.4483C28.7866 17.375 29.4416 17.1883 30.0433 16.9283C29.5866 17.5933 29.0158 18.1858 28.3608 18.6641Z" fill="#33354D"/>
</svg>
