<svg width="18" height="14" viewBox="0 0 18 14" fill="none" xmlns="http://www.w3.org/2000/svg">
<path d="M15.6666 0.333252H2.33329C1.41413 0.333252 0.666626 1.08075 0.666626 1.99992V11.9999C0.666626 12.9191 1.41413 13.6666 2.33329 13.6666H15.6666C16.5858 13.6666 17.3333 12.9191 17.3333 11.9999V1.99992C17.3333 1.08075 16.5858 0.333252 15.6666 0.333252ZM15.6666 1.99992V2.42575L8.99996 7.61159L2.33329 2.42659V1.99992H15.6666ZM2.33329 11.9999V4.53658L8.48829 9.32408C8.63829 9.44158 8.81913 9.49992 8.99996 9.49992C9.18079 9.49992 9.36163 9.44158 9.51163 9.32408L15.6666 4.53658L15.6683 11.9999H2.33329Z" fill="#B4B7C9"/>
</svg>
